# xmcd
#
# Track frame offsets:
#	150
#	13705
#	27660
#	45300
#	58875
#	73202
#	87387
#
# Disc length: 1427 seconds
# Revision: 0
# Processed by: cddbd v1.5.2PL0 Copyright (c) Steve Scherf et al.
# Submitted via: dBpowerAMP V12.0
#
DISCID=5f059107
DTITLE=Levi and The Plateros - Christmas Blues
DYEAR=1900
DGENRE=Blues
TTITLE0=Jingle Bell Rock
TTITLE1=Run Run Rudolph
TTITLE2=Dine' Christmas
TTITLE3=My Everything for Christmas
TTITLE4=Carol of the Bells
TTITLE5=Please Come Home for Christmas
TTITLE6=We Three Kings
EXTD=
EXTT0=
EXTT1=
EXTT2=
EXTT3=
EXTT4=
EXTT5=
EXTT6=
PLAYORDER=
